<?xml version="1.0" encoding="utf-8"?>
<!-- Generator: Adobe Illustrator 21.1.0, SVG Export Plug-In . SVG Version: 6.00 Build 0)  -->
<svg version="1.1" id="レイヤー_1" xmlns="http://www.w3.org/2000/svg" xmlns:xlink="http://www.w3.org/1999/xlink" x="0px"
	 y="0px" viewBox="0 0 113.4 65.2" style="enable-background:new 0 0 113.4 65.2;" xml:space="preserve">
<style type="text/css">
	.st0{fill-rule:evenodd;clip-rule:evenodd;fill:#92C039;stroke:#FFFFFF;stroke-width:0.6;}
</style>
<path class="st0" d="M74.5,6.6c0,0,5.2,1,5.8,0c0.6-1,1-1,1-1H87c0,0,0.3,0.8,1.9,1c1.7,0.1,4.3,0.6,4.8,0c0.5-0.6-0.6-1.8,1-1.9
	c1.6-0.1,2.7,1.2,3.9,1c1.2-0.2,2.7-0.3,3.9-1c1.2-0.7,3.2-2.9,3.9-2.9c0.6,0,3.2-1.2,3.2-1.2c-0.9,2.1-1,2-1.3,3.1
	c-0.2,0.6-1.1,1.8,0,2.9c1.1,1,2.9,2.9,2.9,2.9s-0.7,2.5-1,2.9c-0.3,0.4-1.5,1.3-1.9,1.9c-0.4,0.7-2.2,1-3.9,1.9
	c-1.7,0.9-3.7,0.7-3.9,0c-0.2-0.7-0.5-2.3-1.9-2.9c-1.4-0.6-3.3-2.2-2.9-1.9c0,0-1.5,0.7-1.9,1c-0.4,0.2-1.4,1.6-1.9,1.9
	c-0.5,0.3-2.9,0.4-2.9,0c0-0.4-0.4-2.3-1.9-1.9c-1.5,0.4-2.1-0.1-2.9,1c-0.8,1.1-1.5,0.6-2.9,1.9c-1.4,1.3-2.9,1.9-2.9,1.9
	s-0.5,0.9-1.1,1.5c-0.4,0.5-1.9,1.5-1.9,1.5s-0.1,0.5-0.8,0.8c-1,0.4-5.2-0.1-4.8,0c0.4,0.1-0.1-0.7,0-1.9c0.1-1.2,0.3-1.3,1.9-2.9
	c1.6-1.6,2.9-1.2,2.9-2.9c0-1.7-0.4-1.9,0-2.9C74.8,9.4,74.5,6.6,74.5,6.6z"/>
<path class="st0" d="M81,41.7l-2.2-4.5c0,0-0.4-0.7-1.5-2.8c-1.3-2.5-0.8-3.4-0.9-4.3c-0.1-0.9-1.1-2.5-1.1-2.5s-1-2.3-1-2.9
	c0.2-1.5,0-3.9,0-3.9l3.9-3.9c0,0,1-0.4,1.9-1c1.5-1,4.1-3,4.5-3.3c0.6-0.4,2-0.5,2.3-0.6c1.4-0.2,2.1,2.1,2.1,2.1l2.5,0l2-1.9
	l2.1-1.1l1.9,1.4c0,0,1.6,0.8,2,1.3c0.4,0.5,0.8,1.6,1,2.2c0.2,0.6,0.8,0.7,1.7,0.6c1.1-0.2,3.3-1.1,4.1-1.6
	c0.8-0.5,2.2-1.3,2.2-1.3c0,1.2-0.2,3.2-0.2,3.2s-1.4,2.5-1.9,2.9c-1.8,1.5-2.9,3.9-2.9,3.9s-0.4,0.6,0,2.6c0.4,1.9,0.6,2.6,1,3.2
	c0.4,0.6-0.2-0.1,0.5,1.2c0.7,1.3,1.4,2.7,1.4,2.7s-2-1-2.9,0c-0.9,1-2,2-2.9,2.9c-0.9,0.8-1.6,1-2.9,1.9c-1.3,0.9-3.2,2.5-2.9,2.9
	c0.3,0.4-0.6,2-2.9,1.9c-2.3,0-4.8,0-4.8,0l-1-1.9l-1,1.9l-2.1-0.5L81,41.7z"/>
<path class="st0" d="M28.2,36c0,0,2.9-1.1,3.9-2.5c1-1.4,4.9-6,5.8-6.7c0.9-0.7,2.8-2.8,3.9-3.8c1.1-1,2.9-1.9,2.9-1.9l1.9-1
	c0,0,3.4-3.3,3.9-3.9c0.5-0.5,2.2-1.5,2.9-1.9c0.7-0.4,1.5-0.8,1.9-1c0.4-0.2-0.6-3.5,0-3.9c0.6-0.4,2-1.6,1.9-1.9
	C57.1,7.2,61,5.6,61,5.6s1.6-2,2.9-1.9c1.3,0.1,3.3,1.2,3.9,0c0.5-1.2,7.7,0,7.7,0l-1,2.9c0,0,0.3,2.4,0.1,3.6
	c-0.4,2.2,0.6,3-0.5,4.3c-0.8,1-2.6,1.9-2.9,2.2c-0.7,0.7-1.4,1.9-1.4,1.9s0.3,2.2-0.1,2.2c-1.3,0.3-4.7,0.1-5.7,0.2
	c-1.6,0.2-2.6-0.7-2.9,0c-0.3,0.7-1,1.8-1.9,2.9c-0.6,0.7-0.7,0.1-1.8,0.9c-1,0.8-0.9,1.2-0.9,1.2s2.6,1.3,2.2,2.2
	c-0.1,0.3-3.6,2.2-3.6,2.2s-1.3,0.9-3.1,1.2C50,31.9,47.1,30.7,46,31c-0.6,0.1-1.5-0.1-2.4,0.6c-0.8,0.7-1.7,1.3-2,1.7
	c-0.3,0.4-0.5,0.1-0.9,1.2c-0.7,1.9,0,2.5-0.6,3.3c-0.7,1-1.6,1.6-2.5,3c-0.8,1.2,0,3.2-0.7,4.3c-0.6,1-1.1,2.7-1.9,2.9
	c-1,0.2-5.4-0.2-5.4-0.2s-1.8-0.5-1.3-1.2c0.5-0.7,1-1.7,1-1.7s-0.5-0.2-0.9-0.7c-0.4-0.5-0.9-0.9-1.4-2c-0.6-1.3-0.8-2.4-0.3-3
	C27.1,38.6,28.2,36,28.2,36z"/>
<path class="st0" d="M41.7,51.5c0,0,2.6-2.1,3-2.6c0.4-0.5,2.9-2.9,2.9-2.9h1.9l1.9,1.9c0,0-0.6,3.8,0,3.9c0.6,0.1,2.1,1.1,2.9,1
	c0.8-0.1,4.1-1.9,3.9-1.9c-0.1,0-0.1,0-0.1,0c0,0,0.4-0.1,1-1c0.8-1.1,3.2-2.4,2.9-1.9c-0.3,0.5-0.5-0.5,1,0c1.5,0.5,3.3,0.3,3.9,0
	c0.6-0.3,1.5-1.6,1.9-1.9c0.5-0.4,1-1,1-1s2.4-0.9,2.9-1c0.5-0.1,1.2,0.2,1.9,1c0.7,0.8,1.1,1.3,1.9,1c0.8-0.4,2.2-1.7,2.9-1.9
	c0.7-0.3,1.9-2.3,1.9-2.3l-1.6-3c0,0-0.9-1.4-1.2-2.4c-0.2-0.6-0.9-1.2-1-1.9c-0.2-1.8-0.7-1-1-2.9c0-0.4,0.3-1,0-1.9
	c-0.7-2.2-1.3-2.3-1.6-3.2c-0.4-1.1-0.4-1.8-0.3-2.6c0.1-0.7,0-2.9,0-2.9l-4.4,0l-1.2-0.2L62.6,21c0,0-0.9-0.7-1.6,0
	c-0.6,0.7-1.2,2.5-1.9,2.9c-0.7,0.4-3.2,1.5-2.9,1.9c0.4,0.5,3.5,2,1.9,2.9c-1.6,0.9-2.8,1.5-3.9,1.9c-1,0.4-2.8,1.3-3.9,1
	c-1-0.4-2.8-0.7-2.8-0.7l-3.4,0.2c0,0-0.8,0.7-1.4,1.2c-0.6,0.5-1.3,1-2,2.2c-0.5,0.9-0.3,3.6-1,3.9c-0.7,0.2-1.4,1.5-1.9,1.9
	c-0.6,0.5-0.5,2.3-0.6,3.2c-0.1,1.1-0.2,0.8-0.1,1.8c0.1,1.4,2.8,1.9,2.6,2.8c-0.1,0.8-0.4,1.8,0,2.9C40.4,52.3,41.6,51.5,41.7,51.5
	z"/>
<path class="st0" d="M4.2,51.8c0,0-2.6-3.9-1.9-3.9c0.6,0.1,1.8,0.5,2.9-1c1.1-1.5,1.3-3.4,1.9-2.9c0.6,0.5,3.9,1.9,3.9,1.9
	s0.3,2.3,1.9,1c1.6-1.3,1.8-1.2,2.9-1.9c1.1-0.7,2.1-2.3,2.9-2.9c0.8-0.5,1.9-1.9,1.9-1.9s1.9-0.2,1.9-1c0-0.8-0.3-1.5,1-2.9
	c1.3-1.3,4.1-0.6,3.9-1c-0.2-0.4,1,0.1,1,1c-0.1,0.8-2.1,2.5-1.9,3.9c0.2,1.4,0.6,2.2,1,2.9c0.3,0.7,2.1,1,1.9,1.9
	c-0.1,1-1.4,0.9-1,1.9c0.5,1,3.9,1,3.9,1l3.1-0.1l1.7-2.8c0,0,0.4,0.6,1,1c0.5,0.4,1.9,1.5,1.9,1.9c0.1,0.5-0.4,2.6,0,2.9
	c0.3,0.2,0.4,1.1,1,1c0.6-0.1,0.8-0.6,1,0.2c0.3,1.1,0.5,1.1-0.1,2.6c-0.6,1.6,1.2,1.8,1,2.9c-0.3,1.1,1,2.5,0,2.9
	c-1,0.4-1.6,0.4-1.9,1c-0.3,0.5-1.6,1.3-1,1.9c0.6,0.6,2.5,2,1.9,1.9c-0.6,0-3.9-1.9-3.9-1.9l-2.9-1c0,0,0,0.1-1.9-1.9
	c-2-2-4-2.3-4.8-2.9c-0.8-0.6-1.6-0.7-1.9,0c-0.4,0.7-1.1,0.3-1.9,1c-0.8,0.7-4.8,0-4.8,0s0.6,1.7,0,1.9c-0.6,0.2-2.9-1.9-2.9-1.9
	v1.9c0,0-0.2,0.6-1,1c-0.8,0.3-2.7,1.1-3.9,0c-1.1-1.1-0.7-1.3-1.9-1.9c-1.2-0.7-1.4-1.9-1.9-1.9c-0.5,0-0.3,0.7-1,1
	c-0.7,0.3-2.1,0.2-1.9,1c0.1,0.8,0.6,1.6,0,1.9c-0.6,0.3-1.8-1.4-1.9-1.9c-0.1-0.5-0.1-1.6-1-2.9c-0.8-1.3-0.8-1.5,0-1.9
	C3.1,54.3,4,51.7,4.2,51.8z"/>
</svg>
