<?xml version="1.0" encoding="utf-8"?>
<!-- Generator: Adobe Illustrator 21.1.0, SVG Export Plug-In . SVG Version: 6.00 Build 0)  -->
<svg version="1.1" id="レイヤー_1" xmlns="http://www.w3.org/2000/svg" xmlns:xlink="http://www.w3.org/1999/xlink" x="0px"
	 y="0px" viewBox="0 0 181.4 170.1" style="enable-background:new 0 0 181.4 170.1;" xml:space="preserve">
<style type="text/css">
	.st0{fill-rule:evenodd;clip-rule:evenodd;fill:#34A33A;stroke:#FFFFFF;stroke-width:0.6;}
</style>
<path class="st0" d="M8.4,155.3c0,0,2.5-4.1,2.9-5.8c0.4-1.7,1.4-3.7,0-4.8c-1.4-1.1-1.8-0.8-3.8-2.9c-2.1-2.1-2.2-1.5-2.9-2.9
	c-0.7-1.4-1.7-1.9-2.9-1.9c-1.1,0-1-3.9-1-3.9s1.6-1.1,1.9-2.9c0.3-1.8,0-11.6,0-11.6s1.5-0.8,2.9-1c1.4-0.2,3.9,0,3.9,0l1.9-2.9
	c0,0,2-2.9,2.9-1.9c0.9,1,1.9,1,1.9,1l2.9-5.8c0,0,2.7-1.2,2.9-1.9c0.1-0.7,0-2.9,0-2.9s-2.9-2.6-2.9-3.9c0-1.3-1.9-5.8-1.9-5.8
	s1.3-2.3,1.9-1.9c0.6,0.4,3.9,0,3.9,0l3.9,3.9c0,0,1.1,2,2.9,2.9c1.8,0.9,6.7-1,6.7-1s2.9-0.2,3.9,1c0.9,1.2,4.5,1.2,4.8,0
	c0.4-1.2,4.1-6.2,4.8-6.7c0.7-0.5,1-5.8,1-5.8s-2.1-3.7-1.9-4.8c0.1-1.1-1.9-5.8-1.9-5.8s2.2-3.3,2.9-3.9c0.7-0.6,5.8-2.9,5.8-2.9
	s2.3-5.1,1.9-5.8c-0.3-0.7-1.9-10.9-1-11.6c0.9-0.7,2.4-3.1,2.9-3.9c0.5-0.8,1-7.7,1-7.7v-8.7c0,0-3.4-8.4-4.8-11.6
	c-1.4-3.1-1.8-4.2-1.9-5.8C53.5,12.2,56.5,8,56.5,8l1-4.8l1.9,1h3.9l1.9-3.9c0,0,2,3.8,2.9,4.8c0.9,1,4.3,3.5,5.8,4.8
	c1.5,1.3,6.8,10.8,8.7,13.5c1.9,2.7,3.8,6.3,4.8,7.7c1,1.4,9,10.8,10.6,11.6c1.6,0.7,7.7,6.7,7.7,6.7s7.2,2.5,7.7,3.9
	c0.5,1.3-10.1,9-10.1,9.9c-0.1,0.9,15-4.1,15-4.1L84,64c0,0,1.2,0.9,1.9,0c0.7-0.9,2.9-1.9,2.9-1.9l2.9,1.9l-1,2.9
	c0,0,2.6,3.1,2.9,1.9c0.3-1.1,1.9-4.8,1.9-4.8s2.6,4.1,2.9,4.8c0.3,0.7,5.6,3.3,6.7,2.9c1.1-0.4,5.8-1,5.8-1l6.7-6.7
	c0,0,4.9-2.2,4.8-2.9c-0.1-0.7,5.8-5.8,5.8-5.8s1.5,0.9,1,1.9c-0.5,1-3.9,7.7-3.9,7.7l-1.9,5.8l-3.9,5.8l1,2.9l2.9,3.9l1.9,1.9
	l2.9,1.9l-3.9,1l1,3.9l1,2.9l1.9,2.9l4.9-9l2.8,5.2h4.8l1,1.9l-5.8,1.9l-1.9,4.8c0,0-4.2,0.7-6.7,1c-2.5,0.2-4.8,1-4.8,1l-1.9,2.9
	c0,0-4.9,2.4-5.8,2.9c-0.9,0.5-2.9-1.9-2.9-1.9s-2.8-0.4-1.9,1.9c0.9,2.3,1.2,1.6,0,1.9c-1.2,0.4-7.4,1.4-9.6,0
	c-2.2-1.4-2.9-2.9-2.9-2.9s-5.7,1.2-6.7,1.9c-1.1,0.7-6.9,5.5-8.7,6.7c-1.8,1.3,26,10.4,25.5,11.4c-0.4,1-1,7.7-1,7.7l-7,0.7
	l-2.9-4.1l-3,1.9c0,0-5.7-1-5.7-1.6c0-0.6-2.5,3.6-5.7,0.9c-3.2-2.7-6.9-4.4-8.4-5.5c-1.6-1.1-6.7-2.9-6.7-2.9l-3.9-3.9
	c0,0-6.9-1.9-7.7-1.9c-0.8,0-5.1,2.2-6.7,2.9c-1.7,0.7-6,2.4-6.7,3.9c-0.7,1.4-3.9-0.1-3.9-0.1l-1,1.9c0,0-1.1-2.1-2.9-3.9
	c-1.8-1.7-2.2,1.1-2.9,0.1c-0.7-0.9-1.9-2.9-1.9-2.9s-4.2-0.8-4.8,0c-0.6,0.8-2.9-1-2.9-1l-4.8,5.8c0,0-1.7,4.1-1,5.8
	c0.8,1.7,2,2.4,2.9,3.9c0.9,1.5,3.2,2.5,3.9,2.9c0.7,0.4,3.1,1.2,3.9,1c0.8-0.3,4.8,1.9,4.8,1.9s-1.1-0.7-0.1,0.9
	c1,1.5,2.9,2.9,2.9,2.9l3.9,1.9c0,0,1.8,4.4,0,4.8c-1.8,0.4-4.6,2.8-5.8,1.9c-1.2-0.9-2.8-0.9-2.8-0.9l-1.9-1.9l-2.9,2.9
	c0,0-4.2,3.9-4.8,3.9c-0.7-0.1,1.4,3.9,1,4.8c-0.4,0.9-6.7,3.9-6.7,3.9l-1.9,1.9l-3.9-1.9c0,0-2-2.9-1.9-3.9c0.1-1-0.7-4.4,0-4.8
	C7.2,158.8,8.4,155.3,8.4,155.3z"/>
</svg>
