<?xml version="1.0" encoding="utf-8"?>
<!-- Generator: Adobe Illustrator 21.1.0, SVG Export Plug-In . SVG Version: 6.00 Build 0)  -->
<svg version="1.1" id="レイヤー_1" xmlns="http://www.w3.org/2000/svg" xmlns:xlink="http://www.w3.org/1999/xlink" x="0px"
	 y="0px" viewBox="0 0 113.4 113.4" style="enable-background:new 0 0 113.4 113.4;" xml:space="preserve">
<style type="text/css">
	.st0{fill-rule:evenodd;clip-rule:evenodd;fill:#2DBCED;stroke:#FFFFFF;stroke-width:0.6;}
</style>
<path class="st0" d="M33.3,32.2c0,0-1.4-1.8-1-2.9c0.5-1.1,0.6-4.7,1-4.8c0.3-0.2,0-1.9,0-1.9l-2.6-3.2v-1.9l0.7-1.6V13l0-2.4
	l3.8-1.4c0,0,4.2-2.7,4.8-2.9c0.6-0.2,3.3-1.1,3.6-1.2c0.3-0.2,1.5-1.4,1.5-1.4l0.7-1.3l4.8-1l1.3,0.5l6.4,7.2c0,0-0.3,0.5-0.1,2.3
	c0.2,2.3,0,3.5-0.8,4.4c-0.2,0.3-1,1-1,1v1.9v2.9c0,0,0.7,3.7,0.7,4.7c0,0.7-0.7,3-0.7,3s-3.1,0.8-3.9,1c-1,0.1-2.7,1.2-3.9,1.9
	c-0.5,0.3-2.4,2.1-3.1,2.4c-0.3,0.1,0,0-0.8,0.5C44,35.6,41,36.6,41,37c0,0.3-0.8-0.8-1.6-1.4c-1.9-1.3-3.8-1.5-4.1-1.5
	C34.9,34.2,33.3,32.2,33.3,32.2z"/>
<path class="st0" d="M18.3,11.8c0,0,1.1-1.7,1.6-3c0.5-1.3,0.4-1.4,2.4-2.2c1.3-0.5,4.3-2.1,4.3-2.1L27.2,7l0.6,1.4l3.5,2.6
	c0,0,0.3,3.5,0,4.8c-0.3,1.3-0.8,2.3-0.7,3.1c0.2,0.8,1.1,1.9,1.1,1.9l1.5,2.2c0,0-0.2,3.3-0.6,4.3c-0.3,0.7-1.1,2.9-0.1,4.1
	c0.8,0.9,1.9,2,2.1,2.5c0.1,0.6,1.4,0.3,1.4,0.3l4,2.1c0,0-4.3,0.6-4.9,0.8c-0.6,0.2-1.9,0.6-2.9,0c-1-0.6-3-1.8-3.8-1.9
	c-1.4-0.1-1.4-0.2-3.8-1c0,0-0.9,2.1-1.4,2.8c-0.5,0.6-1.2,3.8-2.5,4c-1.5,0.2-2.4,0.8-2.9,1c-0.5,0.2-3.4,1.4-3.9,1.9
	c-0.5,0.5-2.9,1-2.9,1S9,43.5,9.2,42.8s-0.3-3.1-0.1-3.4c0.2-0.3-0.8-1.6-0.8-1.7c0-0.2,0.6-3.5,0.9-4.5c0.3-1-0.3-2.4,0-2.9
	c0.3-0.5-1.9-1.9-1.9-1.9l-1.2,2c0,0-0.8-0.2-1.7-1c-1-0.8-2.4-1.9-2.9-2.9c-0.2-0.3,1-4.8,1-4.8s3.7-2.4,3.9-2.9
	c0.2-0.5,4.2-2.1,3.9-1.9c-0.3,0.2,1.3,0.2,1.6-0.1c0.3-0.3,2-0.6,2-0.6l1.3-1.7l1.6-1.3L18.3,11.8z"/>
<path class="st0" d="M67,29.3c0,0-0.2,7.2,0,7.7c0.2,0.5,0.5,3.4,1,3.9c0.5,0.5,1,2.9,1,2.9s1.6,3.9,1.9,3.9c0.3,0,2.1,4.3,2.9,4.8
	c0.8,0.5,2.6,2.3,2.6,2.3l-4.5-3.3l-4.5-3.5l-2.2-1.3c0,0-2.3,1.1-3.5,2.6c-0.7,0.9-5.3,0.6-6.1,0.3c-0.8-0.3-6.9-1.6-6.7-1.9
	c0.2-0.3-1.3-1.6-1.9-2.9c-0.4-0.9-2.9-2.9-2.9-2.9s-3.2-0.3-2.9-1c0.3-0.6,0-1.9,0-1.9V37c0-0.5,5.3-2.7,5.3-2.7s1.9-1.7,1.5-1.4
	c-0.5,0.4,2-1,2.3-1.4c0.3-0.5,3.5-1.2,3.5-1.2l2.8-1l0.5-2l0-2.7c0,0-0.5-2.2-0.5-4c0-1.8-0.5-3.7,0-3.9c0.5-0.2,1.7-1.5,1.9-2.9
	c0.1-0.7,0-4.8,0-4.8s3,4.2,3.4,4.4c1,0.7,1.4,1.3,1.4,1.3s1.5-0.5,2.6-1.6c1.2-1.3,2.2-2.2,2.7-2.2c0.5,0,2.2-0.3,2.4,0
	c0.2,0.3,2.9,1.9,2.9,1.9s0,3.7-1,4.8c-1,1.1-2.7,4.2-2.9,4.8c-0.2,0.6-0.5,4-1,3.9C68.4,26.3,67,29.3,67,29.3z"/>
<path class="st0" d="M11.6,44.7c0.5,0,3.4-1.4,4.3-1.9c1-0.5,3.5-2.1,3.9-1.9c0.3,0.2,1.1,0.6,1.9-1l1.9-3.9c0.5-1,0.3-2.1,1-1.9
	c0.6,0.2,4.8,0.9,5.3,1.4c0.5,0.5,2.4,1.7,3.1,1.8c1.7,0.2,2.8-0.2,4.3-0.5c0.4-0.1,1.9-0.7,2.3-0.5C39.9,36.5,41,37,41,37v3.9
	c0,0-0.2,0.7,1.2,0.7c1.9,0,2.8,1.6,2.5,1.9c-0.4,0.4-0.5,1,0.2,2.2c0.6,1.1,2,3.5,1.7,4c-0.3,0.5,0.5,2.4,0.2,2.8
	c-0.3,0.3-3.8-0.5-4.6-0.1c-2.3,0.9-4-0.7-5.6,0.6c-1.6,1.3-3.1,1-4.2,0.5c-1.1-0.5-3.5-2.4-4.8-2.9c-1.3-0.5-4.5-1.9-4.8-1.9
	c-1.9,0-3.2,1.6-2.9,1l-1.3,0.8c0.6,0-3,0.3-4.5-0.8c-1-0.7-1.9-1.9-1.9-1.9S11.1,44.7,11.6,44.7z"/>
<path class="st0" d="M68.9,56.3c0,0-3.7,4-4.8,4.8c-1.1,0.8-1.8,2.6-1.9,2.9c-0.2,0.3-0.5,2.1,0,2.9c0.5,0.8,0.3,6.9,0,6.7
	c-0.3-0.2-0.2,1-1.9,1.9c-1.8,1-6.6,1.9-6.7,1.9c-0.2,0-1.8,1.3-2.9,2.9c-1.1,1.6-1.9,2.9-1.9,2.9l-1.9,1.9l-2.9-1.9
	c0,0-1.2-1.7-1-1.9c0.4-0.4,1.3-0.5,1.9-1c0.6-0.5,1.4-2.6,1-4.8c-0.5-2.2-0.6-1.8,0-2.9c0.6-1.1,0-1.9,0-1.9s-2.2-0.8-1.9-1
	c0.3-0.2,1.1-1.3,1.9-1.9c0.8-0.6,1.4-2.6,1.9-2.9c0.5-0.3,1.8-1,2.9-1.9c1.1-1,3.2-1.6,2.9-2.9c-0.3-1.3-2.9-2.9-2.9-2.9h-1.9
	l-1,1.9l-1-4.8c-0.2-0.8,0.4-2.4,0.1-2.2c-0.3,0.2-0.5-4.1-0.5-4.1l0.2,0.8c0,0-0.1-1.3-1.3-2.6l-0.9-2.3l1-0.9l3.5,4.6
	c0,0,4.5,1.4,5.6,1.6c0.6,0.1,1.5,0.9,3.1,0.6c1.6-0.3,2.7,0.7,3.8-0.3c1.1-1,3.8-2.9,3.8-2.9l1.9,1c-0.3-0.2,4.6,4,4.8,3.9
	c0.2-0.2,3.9,2.9,3.9,2.9v1h-1c-1,0-3.7,1.4-3.8,1C70.7,55.8,68.9,56.3,68.9,56.3z"/>
<path class="st0" d="M19.2,49.9c0,0,2.5-1.6,3.5-1.4c1,0.2,4.2,1.5,4.8,1.9c0.6,0.4,2.9,1.7,3.2,1.9c1,0.6,1.9,1.1,2.4,1.3
	c0.7,0.4,1.5-0.2,2-0.4c0.5-0.2,1.6-0.5,1.9-1c0.4-0.5,3.6,0.8,4.8,0c1.2-0.8,2.9,0,2.9,0h1.9c0,0-0.1,2.8,0.4,3.8
	c0.5,1-2.3,2-2.3,2s-0.6,0.8-1,1c-0.4,0.2-0.1,4-1,3.7c-0.8-0.4-0.7-1.5-2.2-2.2c-1.5-0.8-2.6-1.4-2.6-1.4s-3.9,0.3-3.9,0
	c0.1-0.3,0.1,1-0.4,1.4c-0.5,0.4,0,1.1-1.6,0.5c-1.5-0.7-1.4-0.2-3.8-1c-2.4-0.8-3.7-2-3.8-2.9c-0.2-0.9-0.7,0.2-1.9-1
	c-1.3-1.1-1.4-0.5-1.9-1.5c-0.4-0.9-2-2.3-2-2.3L19.2,49.9z"/>
<path class="st0" d="M23.7,62.1l1-2.9l-0.2-2.3c0,0,0.6,2,4.4,3.4c0.4,0.1,2.6,0.3,2.6,0.3l2,0.9l0.9-2.4c0,0,2.9,0,3.3,0.2
	c0.4,0.2,1.3-0.4,2.5,0.8l1.9,1.5l0.9,1.3c0,0-2.5,0.4-2.9,1c-0.4,0.5-1.7,2.3-1,2.9c0.7,0.6,0.7,3.2,1,3.9c0.3,0.7,1.9,1.9,1.9,1.9
	s-0.8,0-1,1c-0.1,1-0.2,2.7-1,2.9c-0.8,0.2-1.9-1.9-1.9-1.9s-0.8-2.1-1-2.9c-0.2-0.8-1.9-1.9-1.9-1.9s-1.5,0.1-1.9,0
	c-0.4-0.1-2.9,0.1-3.9,1c-0.9,0.8-3.4,1.2-3.8,1.9c-0.4,0.7-1,2.9-1,2.9l-1.9,1c0,0-1.9-0.3-1.9-1.9c0-1.6-0.9-3.4-0.1-4.6
	c0.8-1.2,0.1-2.1,0.1-2.1s-0.5-1.4-1.2-1.6c-0.7-0.2-1.5-1.3-1.5-1.3l2.7-1.9L23.7,62.1z"/>
</svg>
