<?xml version="1.0" encoding="utf-8"?>
<!-- Generator: Adobe Illustrator 21.1.0, SVG Export Plug-In . SVG Version: 6.00 Build 0)  -->
<svg version="1.1" id="レイヤー_1" xmlns="http://www.w3.org/2000/svg" xmlns:xlink="http://www.w3.org/1999/xlink" x="0px"
	 y="0px" viewBox="0 0 85 85" style="enable-background:new 0 0 85 85;" xml:space="preserve">
<style type="text/css">
	.st0{fill-rule:evenodd;clip-rule:evenodd;fill:#EC9CC2;stroke:#FFFFFF;stroke-width:0.6;}
	.st1{fill-rule:evenodd;clip-rule:evenodd;fill:#FFFFFF;}
</style>
<path class="st0" d="M70.9,34.2c0,0-2,2.3-1.9,2.9c0.1,0.6,0.4,2.4,0,2.9c-0.4,0.5-0.5,1.7,0,1.9c0.5,0.2,0.7,0.5,1.9,1.9
	c1.2,1.4,1.4,0.7,2.9,1.9c1.5,1.3,2.2,1.9,2.9,1.9c0.7,0,3.2,0.2,2.9,1c-0.3,0.7,0.5,0.9,0,1.9c-0.5,1-2.3,2.3-1.9,2.9
	c0.4,0.5,0.1,2,0,1.9c-0.1-0.1-1.2-0.5-1.9-1c-0.7-0.4-2.7-1.7-2.9-1c-0.2,0.7-2.4,2.1-3.9,2.9c-1.4,0.8-2.3,0.1-3.9,1
	c-1.5,0.9-2.8,1.1-2.9,1.9c-0.1,0.8-1.1,1.7-1,1.9c0.1,0.2,0,2.5,0,2.9c0,0.4,0.1,3-1,2.9c-1.1-0.1-2.8,0.2-2.9,1
	c-0.1,0.7-1.3,1.6-1.9,2.9c-0.6,1.3-0.7,2.5-1,2.9c-0.3,0.4,0,1.9,0,1.9s-1.7,0.7-1.9,0.8c-0.5,0,0.4-1.2-1.2-2.8
	c-1.8-1.8-2.5-1.5-2.6-1.8c-0.4-0.7,0-1.2,0-1.9c0-0.7,1.5-2.6,1.9-2.9c0.9-0.6,0.6,0.3,1.9-1c1.1-1,1.1-1.9,1.9-1.9
	c0.8,0,2-0.5,1.9-1c-0.1-0.5-1.7-4.4-1-4.8c0.7-0.5,2.2-1.6,1.9-1.9c-0.3-0.4-0.7-1.1-1-1.9c-0.3-0.8-0.9-2.2-1-2.9
	c-0.1-0.8-0.2-2.3,0.3-2c0.5,0.2,3.8,0,3.5-0.8c-0.3-0.9,0.6-1.4,0-1.9c-0.6-0.5-2.8-1.6-3.2-1.8c-0.5-0.3-2-0.2-1.6-1.1
	c1.4-3.3,0.4-3,1-2.9c-0.4-0.1-1.9-1.4-1.7-1.7c0.2-0.4-0.3-1.3-0.2-2.1c0.2-1.3,1.7-2.3,2-2.4c0.8-0.4,1.9-0.4,2.5-0.8
	c0.2-0.2-0.6-1.5,2.9-0.6c1.3,0.3,3.7-3.4,3.7-3.4s0.6-0.9,0.5-1.6c0-1,0.4-2,0.4-2.7c0-0.6,0.2-3,0.3-3c0.1,0.1-0.3-0.8-0.7-0.9
	c-0.4-0.1,2.1-2.2,2.1-2.2l0.6,0.2l2.3,2.4c0,0,0.4,0,1.7,1.1c1.5,1.2,1.6,1.5,1.6,1.5s1,1.4,1.2,1.8c0.3,0.4,0,1.9,0,1.9
	s-1.5,1.2-1.9,1c-0.4-0.2-0.7,0.4-1,1C71.6,30.9,70.9,34.2,70.9,34.2z"/>
<path class="st0" d="M46.9,27.5c0.1-0.6,0.7-2.3,1-3.9c0.3-1.5,0-2.9,0-2.9l-1.9-1l1-1.9c0,0-0.1-1.5,0-1.9c0.1-0.4,1.9-1.6,2.9-2.9
	c1-1.3,2.9-2.5,2.9-2.5s-0.2-0.6,1.9-1c1.4-0.3,2.5-1.4,2.5-1.4s2.2-1.4,0.6-3.8c-0.3-0.4,1.7-0.9,1.7-0.9s2.7,2.5,2.9,2.9
	c0.4,0.8,0.9,1.1,1,1.9c0,0.9,0,0.5,1,1c0.9,0.5,1.1,2.9,1.1,2.9s1.1,0.5,0.8,1c-0.3,0.4,0,1.9,0,1.9s0,1.1-1,1.9
	c-1,0.8-0.9,0.2-1.1,1.6c-0.2,1.4,0.6,3,1.1,3.2c0.5,0.2,1.2,0.4,1,1.9c-0.3,1.6-1,5.8-1,5.8l-1.7,2.3l-2.1,1.6c0,0-2.6-0.7-2.9,0
	C58.2,34,56,34.5,56,34.5s-1.2,0.1-1.8,0.5c-0.2,0.1-1.9-0.4-2.7-0.3c-1.4,0.3-1.9-1.1-1.9-1.1s-1.5-0.1-1.8-0.4s0.5-0.7,0.2-2.1
	c-0.3-1.4-0.2-2.7-0.2-2.7S46.7,28.1,46.9,27.5z"/>
<path class="st0" d="M20.7,15.6c0,0,0.4-0.4,1.4-1.5c1-1.1,2.9-1.6,2.7-3c-0.2-1.5-0.3-2.1-1.4-1.7c-1.1,0.5-2.8,1.8-2.8,1.8l-0.6-2
	c0,0,0.3-3.4,0.1-3.3c-0.2,0-0.3-0.7,0.7-1c1-0.3,2.6-0.5,4-1.4c1.4-0.9,2-0.5,2.9-1c0.9-0.5,2.9-1.9,2.9-1.9s-0.1,1.1,1,1.9
	c1.1,0.8,3,1.2,1.9,1.9c-1,0.7-2.9-0.8-2.9,1c0,1.7-0.8,3.2,0,3.9c0.8,0.6,1.5,1.5,1.9,1c0.5-0.5,1.6-1.5,1.9-1.9
	c0.4-0.4,1.9,0,1.9,0s-0.5,0.9-0.2,1.7c0.1,0.4-0.3,1.6,1.4,3.3c0.7,0.8,0.6,1.4,1.7,1.7c1,0.3,2.3,0,2.9,0c0.5,0,1.2,2.1,1.2,2.1
	l3.6-1.2l0,1.7l-0.9,2.2l1.9,1c0,0,0.2,0.9,0.1,2.5c-0.2,2.4-1.2,3.4-1.2,4c0,0.9,0.6,0.4,1.1,1.2c0.4,0.5-0.4,1.1,0,1.9
	c0.4,0.9,0,2.9,0,2.9s0.9,0.2,2,0.8c2.1,1.2-0.2,0.2,0.6,0.6l4.6,0.4c0,0-1.3,0.9-1.5,2c-0.2,1.1,1,2.8-1,1.9c-2-0.8-4,1.1-4.8,1
	c-0.8-0.2-1.4-0.3-1.9-1c-0.6-0.7-1.5-0.7-1.9-2.9c-0.5-2.2-1.2-3-1.9-3.9c-0.7-0.9-1.5-0.9-1.5-0.9s-1.7,0.2-2.4,0
	c-0.7-0.2-2.9-2.7-3.5-3.1c-0.5-0.3,0.1-1.8-0.4-2.6c-0.6-1.2-1.1-1.5-1.9-1.9c-0.8-0.4-2.4-0.9-2.9-1c-0.5,0-0.2-0.3-1.4-0.7
	c-1.5-0.6-2.1-0.8-2.8-1.2c-2.6-1.5-4.6-4-4.6-4L20.7,15.6z"/>
<path class="st0" d="M44,45.8c0,0,0.1-0.5,0.1-1.2c0.1-1.1,0.1-2.6-0.1-3.6c-0.5-1.7-0.1-3.5-0.1-3.5l0.1-1.3c0,0,0.7,2.5,2.3,3.3
	c2.1,1,1.9,0.5,3,0.1c1.1-0.5,2.1-0.7,2.1-0.7s2.2-0.2,2.5,0.4c0.3,0.6,0.3,0.6,0.5,0.8c0.8,0.9,1.3,1,1.3,1l-0.9,3.5
	c0,0,0.1,0.2,1,0.3c1.6,0.3,4,2.2,4,2.2l-0.2,1.7c0,0-0.4,0.9-1.9,1c-1.3,0-2-0.7-1.9,1c0.1,1.7,0.6,2.3,0.6,3c0,0.6,1,2.4,1,2.4
	s0.4,0.7-0.2,1.2c-0.6,0.5-1.7,0.9-1.7,1.8c0.1,0.9,1.1,3.5,1.1,4.1c0,0.8-2.1,0.1-2.7,1.2c-0.9,1.6-2.3,2.5-3.1,2.6
	c-0.7,0.1-1.8,2.3-1.8,2.3l-5-0.4c0,0-1.6-0.3-1.9-1c-0.4-0.6-0.6-1.8-1-3.9c-0.3-2.1-1.4-4.4-1-4.8c1-1,1.1-2,1.8-2.2
	c1.8-0.5,3-0.7,3-0.7s-2.1-3.1-1.9-3.8c0.1-0.8,0.4-1.7,0.4-1.7s0.7-0.9,0.8-1.5C44.4,48.8,44,45.8,44,45.8z"/>
<path class="st0" d="M27.6,52.5c0,0,1.6,0.1,2.9-1c1.3-1.1,1.9-0.7,2.9-2.9c1-2.2,2-1.3,1.9-2.9c0-1.5,0-2.9,0-3.9c0-1,0-2.9,0-2.9
	s-0.6-1.8-0.3-3c0.3-1.3,0.4-2.2,0.3-2.8c-0.1-0.6,0.1-1.5,0-2.6c-0.2-1.5-0.8-2.6-0.8-2.6l0.9,0.3c0,0,2.1,3,2.9,2.9
	c0.7-0.1,2.9,0,2.9,0s2,2.1,2.4,3.1c0.3,1,0.3,3.5,0.3,3.5s-0.2,1.6,0.1,2.4c0.2,0.7,0.4,0.7,0.3,2.1c-0.1,1.4-0.2,2.7-0.2,3.3
	c0,0.7,0.3,3.6,0.3,3.6L43,51.5c0,0-3.4,0-3.9,0c-0.8,0-1.7,0.2-1.7,0.2s-1.8,1.6-2.5,1.6c-0.5,0-2.2,0.2-2.2,0.2s-1.8,0.2-2.8,0
	c-1.4-0.3-2.4,0.6-2.8,0.8c-0.4,0.2-1.5-0.9-1.5-0.9L27.6,52.5z"/>
<path class="st0" d="M31.5,72.7c0,0,2.3,1.2,2.9,1.9c0.6,0.7-0.4,3.4,0,3.9c0.4,0.5,2.7,1.3,2.9,1.9c0.2,0.6,1.4,2.2,1.9,1.9
	c0.5-0.2,0.4,0.9,1.9,1c1.5,0.1,3.4,0.9,3.9,1c0.4,0,0.7,0.1,1.9-1c1.2-1,2-0.8,2.9-1.9s1.5-0.7,1.9-1.9c0.4-1.2,0.8-3.8,0.8-3.8
	l-1-2.1l-2.7-2l0.1-2.2c0,0-5.5-0.1-6.5-1.2c-0.6-0.6-0.7-1.5-0.7-1.5L41,63.7L40.3,61L40,59.4c0,0,0.5-0.5,1.2-1.7
	c0.6-1.1,3.8-1.4,3.8-1.4s-0.5-0.8-0.9-1.4c-1.7-2.2-1.1-3.4-1.1-3.4l-3.4-0.1c-2.7,0-4.2,2.2-4.1,2c0,0-1.5-0.2-2.2,0.1
	c-0.7,0.3-4.8,0-4.8,0l-2.9,1.9c0,0,0.6,2,1,1.9c0.4-0.1,0.2,0.4,1,1c0.7,0.6,2.4,2,1.9,1.9c-0.5-0.1-1.9,1-1.9,1s-0.7,1.4,0,1.9
	c0.7,0.5,1,1.9,1,1.9s-1.2,0.8-1.9,1c-0.7,0.2-1-0.3-1,1c0.1,1.3,1.9,2.5,1.9,2.9c0,0.4,2,1.3,1.9,1.9
	C29.4,72.4,31.5,72.7,31.5,72.7z"/>
<path class="st1" d="M51.7,19.8c0,0,3.1-2,2.9-2.9c-0.3-0.8,0-1,0-1s-0.3-1.4,0-1.9c0.3-0.5,1.7-0.5,1.9-1c0.2-0.5,1-1,1-1
	s1.5-0.2,1.9,1c0.4,1.2,0.4,1.8,1,1.9c0.6,0.2,1.4,1.1,1,1.9c-0.4,0.8,0.1,1.6-1,1.9c-1.1,0.3-2.5,1.5-2.9,1.9
	c-0.4,0.4-1.6,1.2-1.9,1.9c-0.3,0.7-1.9,1.9-1.9,1.9h-1.9v1.9l-1,2.9l-1-1l-0.2-3.1l1.2-3.7L51.7,19.8z"/>
<path class="st0" d="M5.5,8.2c0,0,1.5-2.6,1.9-2.9c0.4-0.3,2,0.6,1.9,0c0-0.6,8.8,0.3,8.7,0c-0.1-0.3,1.7-0.5,1.9,0
	c0.2,0.5,0,3.2,0,3.9c0,0.6,0.3,2.5,1,1.9c0.7-0.6,2.9-1.9,2.9-1.9s0.9,0.6,1,1.9c0,0.5,0.1,1.1-1,1.9c-1.1,0.8-2.4,1.3-2.4,1.9
	c0,0.5-1.5,0.6-0.5,2c1,1.4,2,2.4,2.9,2.9c0.9,0.5,1.7,1.2,2.9,1.6c1,0.3,2.1,1,2.9,1.3c0.8,0.3,2.4,0.7,2.9,1
	c0.5,0.3,1.6,1.4,1.9,1.9c0.4,0.6,0,1.1,0,1.9c0,0.8,1,2.9,1,2.9s-0.1,2,0,2.9c0.1,0.9-0.4,4-1,4.8c-0.5,0.9-0.4,1.5-1.9,1.9
	c-1.5,0.4-3.6-0.1-3.9,1c-0.2,1.1-2.2,2.2-2.9,1.9c-0.7-0.3-2.4-0.5-2.9-1c-0.5-0.4-2-0.5-2.9-1.9C19,38.5,17,37.1,17,37.1h-3.9
	c0,0-5.6,0.5-6.7,1c-1.2,0.5-2.1,2.2-2.9,1c-0.8-1.2-1.9-3.9-1.9-3.9s-0.9-1.4-1-4.3c-0.1-1.3,0.4-2.8,2-4.4
	c1.4-1.3,2.7-2.9,2.9-3.9c0.3-1.4,0-2.4,0.6-3.4c0.4-0.7,1.1-0.8,1.6-1.8c0.5-1.1,1.1-2.1-0.2-3.4c-1.2-1.2-2.6-2.6-2.5-3.1
	C5.1,10.3,5.5,8.2,5.5,8.2z"/>
<path class="st0" d="M13.2,53.5c0,0,1-1.7,1.9-2.9c1-1.2,1.7-2,2.9-2.9c1.2-0.9,3.9-2.9,3.9-2.9l1.9-1c0,0-1.6,2.1-1.9,2.9
	c-0.3,0.8-1.9,2.9-1.9,2.9v1.9c0,0.7,0.1,1.5,1,1.9c0.9,0.5,1,1.9,1,1.9s-1,0.3-1.9,1c-0.9,0.7-2.2,0.5-1.9,1c0.3,0.5-1.4,1.7-1.9,1
	c-0.5-0.7-1.9-2.9-1.9-2.9h-1V53.5z"/>
</svg>
