<?xml version="1.0" encoding="utf-8"?>
<!-- Generator: Adobe Illustrator 21.1.0, SVG Export Plug-In . SVG Version: 6.00 Build 0)  -->
<svg version="1.1" id="レイヤー_1" xmlns="http://www.w3.org/2000/svg" xmlns:xlink="http://www.w3.org/1999/xlink" x="0px"
	 y="0px" viewBox="0 0 102.1 147.4" style="enable-background:new 0 0 102.1 147.4;" xml:space="preserve">
<style type="text/css">
	.st0{fill-rule:evenodd;clip-rule:evenodd;fill:#CDD928;stroke:#FFFFFF;stroke-width:0.6;}
	.st1{fill-rule:evenodd;clip-rule:evenodd;fill:#E99214;stroke:#FFFFFF;stroke-width:0.6;}
</style>
<path class="st0" d="M43.2,15.8c0,0-0.3-0.7,0-1.9C43.5,12.7,47,11,47,11s1.8,3.6,2.9,2.9c1.1-0.7,1.5-2,1.9-2.9
	c0.5-0.9,0-1.9,0-1.9l1.9-2.9c0,0-0.4-0.3,0-1c0.4-0.6-0.3-1.2,1.9-1.9c2.3-0.7,3.1,0.7,3.9,0c0.8-0.7,1.4-1.3,1.9-1.9
	c0.5-0.6,3.2-0.7,3.9,0c0.7,0.7,2.5,1.8,2.9,1c0.4-0.9,0.6-0.4,1,0c0.3,0.4,0.7,2.9,1,3.9c0.3,1,1,1.7,1.9,2.9
	C73,10.3,72.6,12,74,12c1.4,0,1.9,1,1.9,1s0,1.4-0.3,2.1c-0.2,0.5,0.3,0.9-1.8,0.8c-2.1-0.1-2.7-0.3-3.4,0.1c-0.6,0.4-1,2-2.3,2.8
	c-1.3,0.7-2.1,1.3-2.2,2.1c-0.1,0.8,0.6,1.2,0.3,1.7s-1.1,1.3-1,2.1c0.1,0.8,0.7,1.4,1,1.7c0.3,0.4,0.2,3.8,0,4.8
	c-0.1,0.4-3,0-3.9-1c-0.8-1-1.8-1.7-1.9-1c-0.2,0.7-3,0.4-3.9,1.9c-0.9,1.6-3.2,4.2-2.9,4.8c0.4,0.6-1-2.9-1-2.9s-1.2-2.3-1-2.9
	c0.3-0.6-1-1-1-1l-1-1c0,0,0.6-1.5,1-1.9c0.3-0.4,1.2-2,1.9-1.9c0.8,0.1,0.5,0,1.9-1c1.4-1,1.7-0.7,1.9-1.9c0.2-1.3-1-2.9-1-2.9
	s-1.2-0.7-1.9,0c-0.7,0.7-1.9,1.9-1.9,1.9l-1.9-1.9l-1-1c0,0-2.1-1.4-1.9-1c0.1,0.4-1,1-1,1l-1.9,1c0,0-1.3-0.4-1-1
	C43.5,17.2,43.2,15.8,43.2,15.8z"/>
<path class="st0" d="M81.7,13.9c0,0,3.8-1.1,3.9-1.9c0.1-0.8,1.2-3.2,1.9-2.9c0.7,0.3,2.7,1.4,2.9,1.9c0.2,0.5,0.8,2.1,1,2.9
	c0.1,0.8-0.3,2.3,0,2.9c0.3,0.6,1.5,2.2,0,2.9c-1.5,0.7-2.9,1-2.9,1s-0.2,0.9-1,1c-0.8,0-2.7,2.5-1.9,2.9c0.8,0.4,2.9,1,2.9,1l2.9-1
	c0,0,0.5,0.6,1,1c0.5,0.4,1.6,0.5,1.9,0c0.4-0.5,0.1-2.6,1-1.9c0.9,0.7,1.9,1.5,1.9,1.9c0,0.4-1.9,1.7-1.9,2.9c0,1.2-0.2,1.4,1,1.9
	c1.2,0.5,1.6-0.8,1.9,1c0.4,1.7-0.7,1.7,0,2.9c0.7,1.2,1.3,2.5,1.9,2.9c0.6,0.4,0.8,0.5,1,1s-1.3,2.5-1.9,2.9
	c-0.6,0.3-0.9,0.5-1.6,0.8c-0.7,0.3-1.8,0.1-2.2-0.5c-0.4-0.6-0.7-1.4-1.2-1.2c-0.6,0.2-2.6,1.8-2.6,1.8s-3.3,0.5-4.8,1
	c-1,0.3-1-0.1-1.6-0.9c-0.3-0.4-1.2-2.3-1.2-2c0,0.4-1.9,1.9-1.9,1.9s-1.5-0.4-1.9-1c-0.4-0.6-0.2,0.1-1-1.9
	c-0.8-2.2-1.6-1.6-1.9-3.9c-0.4-2.3,0.6-2.9-1-4.8c-0.8-1.1-1.1-2.7-1.5-2.8c-0.6-0.2-3.3,0-3.3,0s-1.1-1.7-1-0.3
	c0.1,1.4,1,4.1,1,4.1s1.6,0.2,1.1,0.6c-0.5,0.4-3.3,3.1-4,2.3c-0.6-0.7-1.9-2.9-1.9-2.9v-1.9v-2.9c0,0-1.3-1.1-1-1.9
	c0.3-0.9,1.1-2.5,1.1-2.5s-1.2-1.2,0.5-2.4c2.2-1.6,0.8-0.3,2.4-1.8c1-0.9,1.5-2.2,2.1-2.1c0.6,0.1,3.6,0.1,3.6,0.1l0.6-0.3l0.3-2.6
	h3.9L81.7,13.9z"/>
<path class="st0" d="M33.5,22.6c0.6,0,1.8,0.5,1.9-1c0.2-1.4-1.4-2.7-1-2.9c0.4-0.2-1.3-0.5,0-1.9c1.3-1.4,2.8-3.3,2.9-2.9
	c0.1,0.4,2.3,0.4,1.9,1c-0.4,0.5,0.7,2.3,1,2.9c0.3,0.6,0.2,1.7,1,1C42,18,43,18,43,18s0.5,0.6,1.1,0.8c0.6,0.2,2.4-1.2,2.4-1.2
	l0.7-0.7c0,0,2.4,1.1,2.7,2c0.3,0.9,1.4,1.8,1.9,1.9c0.5,0.1,2.2-2.1,2.2-2.1s1.6,0.2,2.2,1.1c0.5,0.9,0.4,1,0.4,2
	c0,0.9-1.4,1.2-2.3,2.1c-1,0.9-2.1,0.7-2.8,1.7c-0.7,1-1.1,1.8-1.1,1.8s-0.1,0.9-0.7,1.1c-0.6,0.2-0.5-0.1-1.2-0.2
	c-0.7-0.1-1.5-0.8-1.5-0.8s0.1,0-1,1c-1.1,1-2-0.3-1.9,1c0.1,1.3-0.6,1.5,0,1.9c0.6,0.5,1.6,0.6,1.9,1.9c0.4,1.3,0,1.9,0,1.9
	s-1.1-1.2-2.6-1c-1.5,0.1-1,0.3-2.2-0.9c-1.3-1.4-1.6-2.2-1.9-2.9c-0.4-0.7-1.2-2.1-1.2-2.1s-1.5-0.3-2.2-0.6
	c-1.4-0.6-2.7-2.8-2.7-2.8S32.9,22.6,33.5,22.6z"/>
<path class="st0" d="M45.1,38.9c0.6-0.3,3.5,0.2,4.8,1c1.3,0.8,1.3,1.6,1.9,1.9c0.6,0.3,0.8,2,0,2.9C51,45.6,47,47.6,47,47.6
	s-3.5,0.3-2.9-1c0.6-1.2,2.1-0.8,1.9-1.9c-0.2-1.1-1-2.9-1-2.9s-0.5-1.3-1-1c-0.5,0.3-0.1,1.5-1.9,1.9c-1.8,0.4-2.7,0.4-2.9,1
	c-0.2,0.6-2.5,3.8-2.9,3.9c-0.4,0-2.8,3.8-2.9,1.9c-0.1-1.9,0.9-2.7,1-3.9c0-1.2,0.9-2.5,0-3.9c-0.9-1.3-2.1-2.1-2.9-2.9
	c-0.7-0.8-3.4-2.7-2.9-2.9c0.5-0.1,1.9-2.9,1.9-2.9v-1.9c0,0,1.4,1.6,1.9,1.9c0.5,0.4-0.2,0.2,1,1.9c1.2,1.7,2.3,2.4,1.9,2.9
	c-0.4,0.5,0.8,0.3,1,1c0.1,0.6,1.4,1.5,1.9,1c0.6-0.5,2.7,0,1.9-1.9c-0.8-1.9-2.3-2.2-1.9-2.9c0.4-0.6-1-1.9-1-1.9s-0.4-1.8-1.9-1.9
	c-1.5-0.1-1.9-1-1.9-1s-1.2-0.8-1.9-1c-0.7-0.2-1.9-1-1.9-1s-0.4,0.5-1,0c-0.6-0.5-2.1-1.5-1.9-1.9c0.2-0.4,1-2.4,1-2.9
	c0-0.4,1-2.9,1-2.9l1.9,1l2.9,1c0,0-0.8,1.8,0,2.9c0.8,1.1,1.9,1.9,1.9,1.9l1.9,0.7c0,0,0.6-0.1,1,0.3c0.4,0.4,0.8,1.6,1.2,2.8
	c0.5,1.2,2.6,3,2.6,3s1.5-0.1,1.9,0c0.5,0.1,1.9,1,1.9,1s-0.4,0.4,0,1C46.4,36.6,44.5,39.2,45.1,38.9z"/>
<path class="st0" d="M55.7,57.2c0,0,0.2,1.8-1,2.9c-1.2,1-2.6,0.8-2.9,1.9c-0.3,1.1-1,2.9-1,2.9c2.3,0.3,2.1,0.4,3.9,0
	c1.4-0.3,2-0.5,2.9-1c0.9-0.4,1.4,0.6,1.9,1c0.3,0.2-0.5,0.3,1.9,1c1.6,0.4,3.4,1.9,4.8,1c1.4-0.9,1.1-2.1,2.9-2.2
	c1.8-0.1,2.7-0.4,3.2-0.8c0.5-0.4,1.6-2.6,1.6-2.6s-0.4-2-0.5-2.7c0-0.7-0.3-1.4-0.8-3.3c-0.3-1.2-1-2.1-1.6-2.9
	c-0.4-0.5-1-1.8-1-1.8l2.4-2.3c0,0,0.9-1,2.1-2.1c1.1-1.2,1.1-1.7,1.6-2.5c0.5-0.9,1.6-2.7,1.6-2.7l1-1.9l-1-1.9c0,0-1.1-1.5-1-1.9
	c0.1-0.5,0.1-1.7,0-2.9c-0.1-1.2-0.4-1-1-1.9c-0.6-1-1.1-2.9-1.9-2.9c-1.1,0-2.8,0.5-2.9,0c-0.1-0.5-1-1-1-1l1,4.8
	c0,0,1.8-0.1,0.9,0.8c-0.9,1-1.6,1.1-2.2,1.6c-0.5,0.4-1,0.9-1.3,0.7c-1.7-1.4-1.7-3-2.2-3.1c-0.5-0.1-1.4,0.1-2.5-0.2
	c-0.7-0.2-0.7-0.2-1.3-0.8c-0.6-0.6-0.8-1.6-1.5-1.2c-0.9,0.4-1.4,0.8-2.3,1c-0.6,0.1-1.8,0.6-2.2,1.5c-0.3,0.8-0.3,0.1-1.5,2.1
	c-1.2,2.2-1.3,2.2-1.3,2.4c0.4,1.2,0.9,1.7,1.9,2.9c1,1.2,1,1.4,1.9,1.9c0.9,0.5,1.4,0.9,1,1.9c-0.4,1-0.2,2.2-1,2.9
	c-0.8,0.7-4.8,2.9-4.8,2.9s3.7,1,4.8,0c1.1-1,3.1-2.5,2.9-1.9c-0.2,0.6-0.3,1.2-1,1.9c-0.7,0.7-1.9,1.1-1.9,1.9c0,0.8-0.6,2.1-1,2.9
	C56.3,54.2,55.7,57.2,55.7,57.2z"/>
<path class="st0" d="M48,54.4c0,0,0-1.2,1-1.9c1-0.8,1.9-1,1.9-1h2.9v1.9c0,0-1.5,1.6-1.9,1.9c-0.5,0.4-2.9,1-2.9,1L48,54.4z"/>
<path class="st0" d="M40.3,55.3c0,0-0.4-1.8,1-2.9c1.3-1.1,2.9-1.9,2.9-1.9s0.5,0.3,1,0c0.4-0.3,0.6,0.2,1,1c0.4,0.7,1.2,1.9,1,2.9
	c-0.2,1-1,2.9-1,2.9s-0.5,1.9-1,1.9c-0.5,0-1.2,0.9-1.9,1.9c-0.8,1-2.9,1.9-2.9,1.9s-1.3-1.5-1-1.9c0.3-0.5,1-2.9,1-2.9V55.3z"/>
<path class="st0" d="M83.6,78.4c0,0,1.1,4.2,0,4.8s-2.2,1.4-1.9,1.9c0.2,0.5,0.3,1.6,0,2.9c-0.3,1.3,0.4,2.3-1,2.9
	c-1.3,0.6-4.6-1.2-4.6-1.2s-0.1-0.5-0.2-2.6c0-1,0-4.8,0-4.8l-4.6-2.1c0,0,0.2-0.2-0.2-1.1c-0.5-0.8-2.3-1.8-2.3-1.8l-2.5,0.2l1-2.9
	l-3.5-4l-0.9-2.7l-1.4-2l1.9,1l2.5,0.2c0,0,1.6-1.5,2.3-2.1c0.7-0.7,2.9,0.2,3.9-1c0.9-1.2,2.4-2.5,1.9-3.9
	c-0.5-1.3-1.6-6.8-1.9-6.7c-0.4,0.1-1.9-2.9-1.9-2.9s1.4-1.5,1.9-1.9c0.5-0.4,2.8-2.4,2.9-2.9c0-0.4,1.7-2.5,1.9-2.9
	c0.5-1,1-1.9,1-1.9l1-1.9c0,0,1.5,2.6,1.9,2.6c0.5-0.1,0.8,0.6,1.3,0.2c0.4-0.4,1.5-1.8,1.5-1.8l1.9,3c0,0,4.9-1.2,5.8-1
	c0.9,0.1,2.7-2.1,2.9-1.9c0.2,0.2,1.3,1.9,1.9,1.9c1,0,2.1-0.6,1.8-0.2c-0.6,0.7-2.1,4-2.7,4.1c-0.6,0.1-1.6,1.4-1.9,1.9
	c-0.3,0.6-1.5,3-1.9,2.9c-0.4-0.1,0.6,1.6,0,1.9c-0.6,0.3-2.8,3.4-2.9,4.8c-0.1,1.4-0.8,1.8-1,3.8c-0.2,2.1-2.2,4.3-1.9,5.8
	c0.2,1.4-0.7,1.6-1,2.9C84.3,71.1,83.6,78.4,83.6,78.4z"/>
<path class="st0" d="M46,95.7c-0.3-0.2-0.6-3.2-1-3.9c-0.2-0.4-1.9-1.9-1.9-1.9s-0.4-1.3,1-1l3.9,1c0,0-0.6-1.7,0-2.9
	c0.6-1.2,1.7-0.8,1.9-1.9c0.2-1.1,0-2.5,0-2.9c0-0.4-2-2.4-1.9-2.9c0.1-0.5-1.2-1.6-1.9-1.9c-0.7-0.4-1.9-1.9-1.9-1.9
	s1.7-1.2,1.9-1.9c0.2-0.7,0.4-2.5,0-2.9c-0.4-0.4-1-1-1-1v-1.9l-1-1.9c0,0,1,0.3,1.9,0c0.9-0.3,2.3-1,2.9-1c0.6,0.1,1.9,0,1.9,0
	l2.4,0.2l3-0.6c0,0,1.9-1.1,2.3-0.6c1,1.2,2.9,1.9,2.9,1.9s0.4,0.5,1.3,1.8c0.5,0.7,0,0.8,0.6,2.1c0.6,1.3,1,2.1,1.9,2.9
	c0.9,0.8,1.9,1.9,1.9,1.9l-1,2.9c0,0,2.6-0.5,2.9,0c0.3,0.5,1.7,1.3,1.9,1.9c0.4,1.2,0.7,1,1.4,1.3c1.3,0.7,1.5,0.7,1.5,0.7l1.9,0.9
	v3.9c0,0-0.1,2.8,0.2,3.6c0.1,0.4-2.5-0.7-3.1-0.7c-0.6,0-2,0.5-1.9,1c0,0.5,0,1.9,0,1.9s1.8,0.6,1.9,1c0.2,0.6,0,3.8,0,3.8s0,0-1,0
	c-0.9,0-0.7-0.2-1.9,1c-1.2,1.2-1.7,2-2.9,2.9c-1.2,0.9-1.9,0-1.9,0l-1.9,1l-1.9,1.9c0,0-1.4,0.3-1.9,0c-0.4-0.2,2.1-4.2,1.9-3.9
	c0,0,0,0,0,0s0.9-1.6,1-2c0.1-0.5,1-2.9,1-2.9v-3.9c0,0-0.7-0.8-1-1.9c-0.3-1.1,0-2.9,0-2.9h-3.9v-2.9h1h1.9c0,0,0.3,0.7,1,1
	c0.7,0.2,1-1,1-1l1-1.9c0,0-1.5,0.3-1.9-1c-0.4-1.2-1.9-1.9-1.9-1.9l-1.9,1c0,0-1.1,4.2-1,4.8c0.2,0.6-1,1.9-1,1.9s-1.4-0.4-1,1
	c0.4,1.4,0.8,2.4,1,2.9c0.2,0.5-1.1,0.8,0,1.9c1.1,1.1,0.2,2.8,1,2.9c0.7,0.1,2,0.6,1.9,1c-0.1,0.4,0.7,1.3,0,1.9
	c-0.7,0.6-3.4,1.3-3.9,1c-0.5-0.3-1-1.9-1-1.9s-0.2-2.3-1-1.9c-0.7,0.4-4.8,1-4.8,1S46.4,96,46,95.7z"/>
<path class="st1" d="M3.1,135.7l3.9-1l1-1.9l1.9-1.9L6,128h2.9c0,0,2.4,2.4,2.9,1.9c0.5-0.4,2.9-1.9,2.9-1.9l1.9-3.9l1.9-2.9
	c0,0,1.6,0.9,1.9,1.9c0.3,1-0.7,3.3-1,3.9c-0.2,0.6,0,2.6-1,2.9c-0.9,0.3-2.4,2.2-2.9,1.9c-0.5-0.3-2.3,0.3-2.9,1l-2.9,2.9
	c0,0-0.5,0.6-1.9,1c-1.5,0.3-0.8,0.1-1,1c-0.1,0.9,1,1.9,1,1.9s-3.2,0.3-2.9,1c0.3,0.6-1,3.8-1,3.8l1.9,1L4,147.2H2.1l-1.9-1.9
	l1.9-2.9l1-1.9l-1-2.9L3.1,135.7z"/>
</svg>
