<?xml version="1.0" encoding="utf-8"?>
<!-- Generator: Adobe Illustrator 21.1.0, SVG Export Plug-In . SVG Version: 6.00 Build 0)  -->
<svg version="1.1" id="レイヤー_1" xmlns="http://www.w3.org/2000/svg" xmlns:xlink="http://www.w3.org/1999/xlink" x="0px"
	 y="0px" viewBox="0 0 79.4 59.5" style="enable-background:new 0 0 79.4 59.5;" xml:space="preserve">
<style type="text/css">
	.st0{fill-rule:evenodd;clip-rule:evenodd;fill:#DD5718;stroke:#FFFFFF;stroke-width:0.6;}
</style>
<path class="st0" d="M-0.1,35.7l4.8-3.9l3.9-1c0,0,2.1-2.3,1.9-1.9c-0.2,0.4,1.1-1.9,1.9-1.9c0.8,0,1.9-0.2,2.9-1
	c1-0.7,2.9-0.7,2.9-1.9c-0.1-1.2-0.7-6.6,0-6.7c0.7-0.1,2.1,0.2,1.9-1c-0.2-1.2,1-2.6,1-2.9c0-0.3,1.9-1,1.9-1l1.9-3.9
	c0,0,0.1,0.2,1,1c0.8,0.8,3.7,4.2,3.9,4.8c0.1,0.6,1.1,2,2.9,1.9c1.8-0.1,3.4-2.1,3.9-1.9c0.5,0.2,4,1.2,4.8,1
	c0.8-0.2,3.9-2.9,3.9-2.9l1.8,0.9c0.6,3,0.9,2.9,1.4,4.4c0.3,0.9-2.6,0.5-2.6,0.5s-3-0.2-5.4,0.7c-2.3,0.8-5.4,1.2-6.9,1.3
	c-1.2,0.1-0.9,0.6-1.7,1.9c-1,1.6-2.1,3.9-2.3,5c-0.2,1-0.6,1.6-1.3,2.4c-1,1.3-1.7,1.5-2.2,2.2c-0.4,0.7-1.1,1.2-2.2,1
	c-1-0.2-1.7,0-1.7,0s0.5,2.1,0.8,2.7c0.3,0.7,0.7,2.2,0.2,3.1c-0.6,0.9-1.8,0.4-2.2,1.2c-0.4,0.8-0.5,0.6-1.2,1.7
	c-0.7,1.2-2.8,1.7-3.3,1.9c-0.6,0.2-0.8,2.7-0.5,3.4c0.4,0.9,2.2,0.1,2.4,0.6c0.1,0.5-0.9,3.8-0.9,3.8s-2.4,0.5-3.9,0
	c-1.5-0.5-2.9-2.9-2.9-2.9s-0.3-0.5,0-1c0.3-0.5-1-2.9-1-2.9l1-1.9l1.9-1.9l-1-1.9c0,0-1.6,2.4-1.9,1c-0.4-1.4-1-2.9-1-2.9v-1.9
	l1-1.9h-1c0,0-1.2-0.9-1.9,0c-0.8,0.9-2.4,3.2-2.9,2.9c-0.4-0.3-2.9,1-2.9,1L-0.1,35.7z"/>
<path class="st0" d="M18.1,56.8h-2.9l1.9-2.9v-2.9c0,0,0.4-0.9,0.6-1.7c0.1-0.4,0.3-2.2,0.3-2.2s-2.6,0.2-2.6-0.8
	c0.1-1,0.1-3.3,0.7-3.1c0.6,0.2,2.9-1,2.9-1s1-2.4,1.9-2.9c0.9-0.5,1.3-0.5,1.9-1c0.6-0.4,0.1-3.1,0-2.9c-0.1,0.2-1-2.9-1-2.9h2.9
	l1.9-1.9l1.9-1.9l1-2.9c0,0,1.6-3.1,1.9-3.9c0.4-0.7,1.1-2,1.9-1.9c0.8,0.1,5.4-0.6,5.8-1c0.4-0.4,5.8-1,5.8-1H48c0,0,2.4,0.1,2.9,1
	c0.5,0.9,3.9,2.9,3.9,2.9l1.9-1.9h1.9c0,0-0.2,3.2,1,3.9c1.2,0.6,3.1,0.4,2.9,1c-0.2,0.6-0.2,2-0.3,3.2c-0.1,1.1-0.6,1.4,1.5,1.4
	c2.5,0,3.7,0.2,3.7,0.2s-1.5,2-2,2.9c-0.6,0.9-1.5,3.1-1.9,3.9c-0.5,0.7-1.1,2.3-1,2.9c0.1,0.6-1,1-1,1s-0.5,0.3-1.9-1.9
	c-1.4-2.3-0.5-2.3-1.9-3.9c-1.5-1.5-2.5-1.4-2.9-1.9c-0.4-0.5-1-2.1-2.9-1.9c-1.9,0.1-3.9-1-3.9-1s-2.8,1.2-2.9,1
	c-0.1-0.2-1.6,0.2-2.9,1c-1.3,0.8-2.1,1.4-1.9,1.9c0.1,0.5-0.6,0.5-1,1c-0.4,0.5-3.9,1-3.9,1s-0.6,1.4-1,1.9c-0.2,0.3-0.3,0-0.3,0
	c0,0,0.1,0.2,0.3,1c0.4,1.8,0,2.5-1,3.8c-1,1.4-2.4,2-2.9,2.9c-0.5,0.9-0.9-0.4-1,1c-0.1,1.4,0.5,2.8-1,2.9c-1.5,0.1-2.2,1-1.9,1.9
	c0.2,1,0.3,1.4,0,1.9c-0.3,0.5-1,1-1,1s-0.7,1.4,0,1.9c0.7,0.5,3.8,2.7,2.9,2.9c-0.9,0.2-5.2-0.8-4.8-1c0,0-1.5,0.2-1.9,1
	c-0.4,0.8-2.9,0-2.9,0L18.1,56.8z"/>
<path class="st0" d="M45.1,4.8c0,0,3.4-0.4,3.9-1c0.4-0.6,2.9-1.4,3.9-2.9c1-1.5,1.1,0,2.9,0c1.7,0,3,1,3.9,0c0.8-1,1.9-1,1.9-1
	s3.5,2.5,3.9,2.9c0.4,0.4,2.1,1.8,2.9,1.9c0.8,0.1,2.9,1,2.9,1l-1,2.9c0,0-0.6-0.8-1.8-1.8c-0.3-0.3-3.6,0.7-4.7,0.8
	c-1.7,0.1-2-0.1-2.8,1.2c-0.5,0.9-1.3,1.8-1.3,1.8L57,10l-1-0.6l-3.8,0.5c0,0-0.8,0.9-1.7,1.5c-0.8,0.5-2.9,1.5-2.9,1.5L47,13.5
	l-1.9-1c0,0-1.2-1.9,0-2.9s2.3-2.9,1.9-2.9C46.6,6.8,45.1,4.8,45.1,4.8z"/>
<path class="st0" d="M75.9,7.7c-0.4,1.1-2.8,2.8-1.9,3.8c0.8,1.1,1.4,1.1,1.9,1.9c0.6,0.8,0.8,2.2,1,2.9c0.1,0.7,0.5,2.9,1,2.9
	c0.5,0,1,1,1,1s-4,0.6-4.8,1.9c-0.8,1.3-0.8,2.7-1.9,2.9c-1.1,0.2-2.3,1.6-2.9,1.9c-0.6,0.3-1.5,3.1-1.9,2.9
	c-0.5-0.2-5.1-0.2-5.1-0.2c0-0.8,0-0.8,0-2.5c0-1.4,0.2-2.3,0.2-2.3s-2.5-0.4-2.8-0.7c-0.6-0.5-0.8-3.5-1-3.6
	c-0.9-0.4-1.9-0.3-1.9-0.3s-1.5,2.1-1.9,1.9c-0.4-0.1-2.9-1.7-3.4-2.4c-0.2-0.3-1.2-1.1-1.2-1.1L48.3,18l-1.4-4.5c0,0,1.2-1,3-2
	c1.8-0.9,1.7-1.8,2.9-1.9c1.2-0.1,3.4-0.6,3.9,0c0.4,0.6,2.4,0.9,2.9,1c0.5,0,1.9-2.9,1.9-2.9s1.7,0.1,1.9,0c0.7-0.3,4.8-1,4.8-1
	l1.9,1.9l1-2.9l1-1l3.9,1.9C75.9,6.8,76.3,6.6,75.9,7.7z"/>
</svg>
