<?xml version="1.0" encoding="utf-8"?>
<!-- Generator: Adobe Illustrator 21.1.0, SVG Export Plug-In . SVG Version: 6.00 Build 0)  -->
<svg version="1.1" id="レイヤー_1" xmlns="http://www.w3.org/2000/svg" xmlns:xlink="http://www.w3.org/1999/xlink" x="0px"
	 y="0px" viewBox="0 0 181.4 198.4" style="enable-background:new 0 0 181.4 198.4;" xml:space="preserve">
<style type="text/css">
	.st0{fill-rule:evenodd;clip-rule:evenodd;fill:#EED241;stroke:#FFFFFF;stroke-width:0.6;}
</style>
<path class="st0" d="M23.2,42.1c0,0,3.3-5.8,3.8-4.8c0.6,1,5.8-1,5.8-1l1-3.9c0,0,1.8-2.2,1.9-2.9c0.1-0.7,1-3.9,1-3.9l-1.9-3.9
	c0,0,1.6-2.1,1.9-2.9c0.4-0.7,2.9,1.9,2.9,1.9l3.8-1.9l1,3.9c0,0,0.8,3.6,1,4.8c0.2,1.2,0,6.7,0,6.7h4.8l1.9-5.8l3.9,1l3.9,2.9
	c0,0,2.1,0.4,1.9-1.9c-0.1-2.3,1-4.8,1-4.8l1.9-4.8l-1.9-2.9c0,0-5,1.5-5.8,1.9c-0.8,0.4-5.3,0.3-5.8,1c-0.5,0.7-1.9-2.9-1.9-2.9
	l1-3.9l2.9-5.8h2.9l2.9,1l2.9,4.8h1.9l4.8-2.9l-1,9.6c0,0-1.2,9.7-1,11.6c0.2,1.8,1.2,6.6,1.9,7.7c0.7,1.1,1.6,2,1.9,2.9
	c0.3,0.9,3.9,4.8,3.9,4.8l1.9,1.9l-1.9,1.9l-4.8,1l-3.6,0.7L60.1,57c0,0-2.6,0.1-3.2,0.5c-0.6,0.5-4.6,1.4-4.6,1.4l1-4.4l1.7-3.8
	c0,0-3,0.8-2.9,0c0.1-1-1-2.9-1-2.9L47,51.8c0,0-1.3-0.9-2.6-1c-1.3-0.2-2.9,1-2.9,1l-2.9-2.9l-4.8,1.9c0,0-1.9-0.6-2.7-0.7
	c-0.8-0.1-4-1.2-4-1.2L26.2,52l-2-3.2l-1-3.9l-1.9-1L23.2,42.1z"/>
<path class="st0" d="M73.3,106.6l-2.9-1l-1,4.8c0,0-2.1,3.1-2.3,3.2c-0.5,0.1-2.7-0.4-3.2-0.5c-0.5-0.2-3.2,1.2-3.2,1.2
	c0.1-0.1-0.5-0.9-0.7-1.3c-0.8-1.9-1.8-3.7-1.8-3.7s-0.4,0-1.4,0.1c-0.9,0.1-3.4,0.3-3.9,0c-0.5-0.3-1.9-1.9-1.9-1.9l-1-1l-0.7-0.7
	l-0.3-3.2l-1-1.9c0,0,0.8-2.9,0.5-3.5l-0.5-2.2l-1.9-2.9c0,0-0.5-1.4-0.3-2.8c0.2-0.9,0.9-3.3,0.9-3.3s0-2.4,0.3-2.6
	c0.3-0.2,1.9-1.9,1.9-1.9l0.7-2.5c0,0-0.7-1-0.7-2.3c0-1.8,0.6-2.6,1-3.9c0.3-0.9,0.8-1.4,0.8-2.1c0-0.6,0.2-0.8,0.1-2.4
	c0-1,0.2-1.9-0.1-3c-0.1-0.4,0-1.9,0.3-1.9c0.3,0,0.4-2.3,0.4-2.3s0.3-0.9,0.3-1.9c0-0.6,1-1,1-1l3.9-1c0,0,4.2-0.5,3.9-1
	c-0.3-0.5,4.1-2.5,4.1-2.5l2.7-1l4-0.8l2.6-0.5l1.9-1.9c0,0,5.3,5,4.8,5.8c-0.5,0.8,0.5,3.4,0,3.9c-0.5,0.5-0.5,4.3,0,3.9
	c0.5-0.5,0,1,0,1s1.9,2.9,2.9,4.8c1,1.9,1,7.9,1,9.6c0,1.8,1.1,3.1,1,3.9c-0.2,0.8,1,3.2,1,2.9c0-0.3-0.3,0-1,1
	c-0.6,1-1.3,2.4-1,2.9c0.3,0.5-0.2,1.1-1,1.9c-0.8,0.8-1.1,2.2-1,2.9c0.2,0.6,0.8,1.6,1,1.9c0.2,0.3,0.3,1-1,1.9
	c-1.3,1-0.8,2.2-1,2.9c-0.2,0.6,1.1,1.9,0,1.9c-1.1,0-1.6,0.6-1.9,1c-0.3,0.3,0.2,2.2-1,1.9c-1.1-0.3-2.7-0.2-2.9,1
	c-0.2,1.1-1.9,1.9-1.9,1.9L73.3,106.6z"/>
<path class="st0" d="M18.4,68.1c0,0,1.6,0.6,2.9,0c1.3-0.6,4-2.2,3.9-3.9c-0.2-1.6,0.5-2.6,1-3.9c0.5-1.3,1-3.9,1-3.9v-1.9l-1-2.9
	l1-2.9l2.9,1l3.9,1l3.5-1.4l1.3-0.5l2.9,2.9l2.9-1c0,0,3.2,1.4,2.9,1c-0.3-0.5,1.8-1.3,1.9-1.9s1.9-1.9,1.9-1.9l1,2.9H55
	c0,0-0.5,1.2-0.8,1.7c-0.4,0.7-1.2,2.1-1.2,2.1l-0.8,4.3l-0.2,1.5c-0.5,0.5-1,4.8-1,4.8V70c0,0-0.6,3.1-1,2.9
	c-0.3-0.2-0.8,1.9-1,2.9c-0.2,1,0.7,3.4,0.7,3.4s-1.3,2.7-1.3,3c0,0.3-1,1.5-1.4,1.3c-0.3-0.2,0.5,1.9,0,1.9c-0.5,0-0.3,2.7-1,2.9
	c-0.6,0.2,0,3.9,0,3.9s1.9,2.4,1.9,2.9c0,0.5,0.6,3.9,0.6,3.9l-0.6,1.8l1,1.9l0.2,2.9l-3.7,2.4c0,0-0.2,0.9-0.9,1.3
	c-1,0.5-3.5,1.4-3.4,1.1c0.2-0.3-2.9-1.4-2.9-1.9c0-0.5-1.9-3.9-1.9-3.9l-3.9-1l-3.1-0.3c-0.5,0-2.4-1.1-2.7-1.7
	c-0.3-0.5-2.9-0.2-2.9-0.2l-1-0.7l-1-1V97c0-0.6,1.4-4,1.9-3.9c0.5,0.2,2.2-1.6,1.9-1.9c-0.3-0.3,1-4.8,1-4.8v-5.8c0,0,1-2.1,1-2.9
	c0-0.8-1-2.9-1-2.9L25.1,72l-1.9-1c0,0-3.1-0.3-2.9,0c0.2,0.3,0,1.9,0,1.9h-2.9l-1-1V70L18.4,68.1z"/>
<path class="st0" d="M43.2,119.1c0,0-2.4,1.6-1.7,3.9c0.2,0.6,1.9,1.9,1.9,1.9l-0.8,2.4c0,0-0.5,0.9-0.8,1.1
	c-0.3,0.2-1.2,0.7-1.6,2.4c-0.5,2-0.5,4.8-0.7,5.6c-0.2,0.8,0.1,1.8-0.7,2.6c-1,1-1.9,1.5-2.6,1.9c-0.7,0.4-2.2,0.2-2.4,1.2
	c-0.3,1.3,0.2,2.9,0,2.9h4.5c0,0,1.2,0.5,1.6,0.9c0.2,0.2,0.7,0.7,2,0.9c1.8,0.3,1.5-0.3,2.8,0.1c1,0.3,0.6-0.4,0.9,0.9
	c0.3,1.3,0.9,2.5,0.9,2.5l0.7,1.4l3.5-3.1l2.2-0.8v-4.8c0-0.5,1.3-6.4,1-6.7c-0.3-0.3,1.4-4.5,1.9-4.8l2.9-1.9l2.9-1.9h2.9
	c0,0,0.3-1.6,1.9,0c1.6,1.6,4.8,5.8,4.8,5.8s1.4-0.8,1-1.9c-0.5-1.1-2.9-4.3-2.9-4.8c0-0.5,0.8-0.6,1-1.9c0.2-1.3,0-3.9,0-3.9l-1-1
	c0,0,1.4-1.8,1-1.9c-0.5-0.2,1.1-0.5,1-1c-0.2-0.5-1-1.9-1-1.9s2.1-2.9,1.9-2.9c-0.2,0,1.9-1.8,1.9-1.9c0-0.2-0.2-1.3,0-1.9
	c0.2-0.6-0.8-1.7-0.8-1.7l-2-0.9l-1.1-0.1l-0.5,2.7c0,0,0.3,0.9-0.4,1.9c-0.6,1-1.7,2.6-1.9,2.9c-0.2,0.2-1.3,0.3-1.9,0
	c-1-0.5-2.9,0-2.9,0l-1.9,1l-1.6-2.8l-0.9-2.1l-5.3,0.1c0,0-1.1-1.7-1.6-1.5c-0.5,0.2-1.6-2.3-2.3-2.2c-0.6,0.2-1.3,1-1.3,1
	s-2.3,1.4-2.5,1.7c-0.5,0.8-3.1,2.3-3.6,2c-0.5-0.3,0.7,0.9,0.7,0.9s2.1,3.4,1.9,3.9c-0.2,0.5,0,1.9,0,1.9L43.2,119.1z"/>
<path class="st0" d="M12.6,123c-0.2-0.5-1-3.7,1-4.8c1.9-1.1,3.7-0.8,3.9-1.9c0.2-1.1,2.2-2.9,1.9-3.9c-0.3-1,1-3.2,1-3.9
	c0-0.6,0.8-3.5,1-3.9c0.2-0.3,1-4.8,1-4.8s0.8,1.4,1.9,1.7c0.8,0.2,2.4,0,2.4,0l2.4,1.8l4.5,0.5l3.1,0.8l1.9,3.9l2.9,1.9l1.9,2.9
	l1,1.9c0,0-0.2,3.4-0.7,3.5c-0.5,0.2-2,1.6-2.2,2.3c-0.2,0.6,0,2.2,0,1.9c0-0.3,1.9,1.9,1.9,1.9l-1,2.9l-1.9,1.9c0,0-1.1,4.2-1,3.9
	c0.2-0.3,0,2.9,0,2.9v1.9l-2.4,2.2l-1.9,1c0.2-0.1-1.4,0.1-1.4,0.7v4.8v3.9c0,0-1.9,1.6-1.9,1.9c0,0.3-2.7,1.6-2.9,1
	c-0.2-0.6-4.8-2.9-4.8-2.9h-1.9h-3.9c0,0-2.7-1.4-2.9-1.9c-0.2-0.5-1-4.8-1-4.8l1-3.9l1.3-2.2c0,0,1.4-1.2,1.8-1.4
	c0.8-0.3,2.8-1.9,2.8-1.9s1.1-1.9,0.9-2.2c-0.2-0.3-1-2.9-1-2.9h-2.9c0,0-0.6-2.6-1-2.9c-0.7-0.6-1.6-1.5-1.6-1.5l-1.4-1.2
	C14.5,124.2,12.8,123.5,12.6,123z"/>
<path class="st0" d="M3,164.4c0,0,2.4-0.7,3.4-0.9c0.7-0.1,4.8-1.6,4.4-1.5c-0.3,0.2,2.3-1,2.3-1s-1-2.4,0.1-4.3
	c0.3-0.6,1.4-2.9,1.4-2.9s1-1.2,1.2-1.6c0.4-0.7,1.7-1.7,1.7-1.2c0,0.3,3.9,0,3.9,0h2.9c0,0,3.6,1.7,3.9,1.9c1,1.1,1.7,1.1,2.5,0.8
	c1-0.4,2.7-2.2,2.7-2.2l0.6-0.7v-5.6h4.8l2.9,1.9h3.9l1,2.9l1,1.9l1.6-1.4l2.3-1.8l1.9-0.6c0,0,2.7,4.2,2.9,4.8c0.2,0.6,0,5.5,0,5.8
	c0,0.3,1.4,7.5,1,9.6c-0.5,2.1-0.5,6.3-1,6.7c-0.5,0.5,0.5,4.3,0,4.8c-0.5,0.5-3.1,5-3.9,4.8c-0.8-0.2-2.7,2.2-2.9,1.9
	c-0.2-0.3-2.9-1.9-2.9-1.9h-2.9l-2.9,2.9l-1.9,1c0,0-1.1-1-1.9-1.9c-0.8-1-2.9-3.8-2.9-3.8s-1.3-1.1-1.9-1.9c-0.6-0.8-3.1-4-2.9-3.9
	c0,0,0,0,0,0c0,0-1.8-2.1-2.9-1.9c-1.1,0.2-4.7,0.6-4.8,1c-0.2,0.3-0.8,2.4-2.9,2.9c-2.1,0.5-5.3,2.2-5.8,2.9
	c-0.5,0.6-3.8,1.9-3.8,1.9s-2.2,0.6-2.6,0.5c-1-0.4-3.2-2.4-3.2-2.4l-1-3.9l0.1-3.6l-1.1-3.1l1.9-1.9l0.2-1.6L3,164.4z"/>
</svg>
